<svg xmlns="http://www.w3.org/2000/svg" viewBox="0 0 17 25.06"><defs><style>.cls-1,.cls-2{fill:none;stroke-miterlimit:10;}.cls-1{stroke:#404041;}.cls-2{stroke:#ef4e37;}</style></defs><title>Asset 1</title><g id="Layer_2" data-name="Layer 2"><g id="Layer_1-2" data-name="Layer 1"><line class="cls-1" x1="3.5" y1="14.04" x2="13.5" y2="14.04"/><path class="cls-1" d="M1.76,10.66l5.4,13.22a1.14,1.14,0,0,0,1,.69,1.16,1.16,0,0,0,1.06-.73l1.79-4.23h0l3.79-9"/><path class="cls-2" d="M8.49.5a7,7,0,0,1,6.86,6.25.46.46,0,0,0,.19.3l.1.06a2,2,0,0,1,.86,1.63c0,1-1,1.23-2,1.31H2.47c-1-.08-2-.29-2-1.31a2,2,0,0,1,.86-1.62l.1-.06a.46.46,0,0,0,.19-.3A7,7,0,0,1,8.51.5"/></g></g></svg>